<svg width="91" height="91" viewBox="0 0 91 91" fill="none" xmlns="http://www.w3.org/2000/svg">
<path fill-rule="evenodd" clip-rule="evenodd" d="M45.9048 8.9375C26.9802 8.9375 12.1548 17.5859 12.1548 28.625V62.375C12.1548 73.4141 26.9802 82.0625 45.9048 82.0625C64.8294 82.0625 79.6548 73.4141 79.6548 62.375V28.625C79.6548 17.5859 64.8294 8.9375 45.9048 8.9375ZM74.0298 45.5C74.0298 48.882 71.2595 52.3309 66.4325 54.9641C60.9974 57.9277 53.706 59.5625 45.9048 59.5625C38.1036 59.5625 30.8122 57.9277 25.3771 54.9641C20.5501 52.3309 17.7798 48.882 17.7798 45.5V39.65C23.7774 44.9234 34.0325 48.3125 45.9048 48.3125C57.7771 48.3125 68.0321 44.9094 74.0298 39.65V45.5ZM25.3771 19.1609C30.8122 16.1973 38.1036 14.5625 45.9048 14.5625C53.706 14.5625 60.9974 16.1973 66.4325 19.1609C71.2595 21.7941 74.0298 25.243 74.0298 28.625C74.0298 32.007 71.2595 35.4559 66.4325 38.0891C60.9974 41.0527 53.706 42.6875 45.9048 42.6875C38.1036 42.6875 30.8122 41.0527 25.3771 38.0891C20.5501 35.4559 17.7798 32.007 17.7798 28.625C17.7798 25.243 20.5501 21.7941 25.3771 19.1609ZM66.4325 71.8391C60.9974 74.8027 53.706 76.4375 45.9048 76.4375C38.1036 76.4375 30.8122 74.8027 25.3771 71.8391C20.5501 69.2059 17.7798 65.757 17.7798 62.375V56.525C23.7774 61.7984 34.0325 65.1875 45.9048 65.1875C57.7771 65.1875 68.0321 61.7844 74.0298 56.525V62.375C74.0298 65.757 71.2595 69.2059 66.4325 71.8391Z" fill="url(#paint0_linear_1109_191)"/>
<defs>
<linearGradient id="paint0_linear_1109_191" x1="45.9048" y1="0.5" x2="45.9048" y2="90.5" gradientUnits="userSpaceOnUse">
<stop stop-color="#F52482"/>
<stop offset="1" stop-color="#ff6600"/>
</linearGradient>
</defs>
</svg>
