<svg width="119" height="119" viewBox="0 0 119 119" fill="none" xmlns="http://www.w3.org/2000/svg">
<path d="M49.5 102.012C32.6429 107.702 18.5953 102.012 10.1667 84.4722" stroke="#ff6600" stroke-width="8.5" stroke-linecap="round" stroke-linejoin="round"/>
<path d="M49.5 109.056V93.1152C49.5 90.1736 50.4042 87.6169 51.862 85.3076C52.862 83.7229 52.1771 81.475 50.3708 80.9784C35.4086 76.8651 24.9167 70.2517 24.9167 48.3153C24.9167 42.6122 26.7853 37.2504 30.0699 32.5837C30.8873 31.4223 31.296 30.8416 31.3943 30.3156C31.4925 29.7897 31.3217 29.1033 30.98 27.7305C29.5894 22.1432 29.6795 16.2101 31.7667 10.861C31.7667 10.861 36.0796 9.45577 45.896 15.5882C48.1372 16.9884 49.2579 17.6884 50.2449 17.845C51.2317 18.0016 52.5513 17.6736 55.1901 17.0176C58.7989 16.1205 62.5174 15.6389 66.7084 15.6389C70.8993 15.6389 74.6178 16.1205 78.2266 17.0176C80.8654 17.6736 82.185 18.0016 83.1718 17.845C84.1591 17.6884 85.2796 16.9884 87.5206 15.5882C97.3372 9.45577 101.65 10.861 101.65 10.861C103.737 16.2101 103.827 22.1432 102.437 27.7305C102.095 29.1033 101.924 29.7897 102.022 30.3156C102.121 30.8415 102.529 31.4223 103.347 32.5837C106.631 37.2504 108.5 42.6122 108.5 48.3153C108.5 70.2517 98.0084 76.8651 83.046 80.9784C81.2396 81.475 80.5547 83.7229 81.5547 85.3076C83.0125 87.6169 83.9167 90.1736 83.9167 93.1152V109.056" stroke="#ff6600" stroke-width="8.5" stroke-linecap="round" stroke-linejoin="round"/>
</svg>
