<svg width="91" height="91" viewBox="0 0 91 91" fill="none" xmlns="http://www.w3.org/2000/svg">
<path fill-rule="evenodd" clip-rule="evenodd" d="M64.5792 51.9477C65.1073 52.4752 65.4041 53.191 65.4041 53.9375C65.4041 54.684 65.1073 55.3998 64.5792 55.9273L56.1417 64.3648C55.0427 65.4638 53.261 65.4638 52.162 64.3648C51.063 63.2659 51.063 61.4841 52.162 60.3852L58.6132 53.9375L52.162 47.4898C51.063 46.3909 51.063 44.6091 52.162 43.5102C53.261 42.4112 55.0427 42.4112 56.1417 43.5102L64.5792 51.9477ZM39.2667 43.5102C38.7392 42.982 38.0233 42.6853 37.2769 42.6853C36.5304 42.6853 35.8145 42.982 35.287 43.5102L26.8495 51.9477C26.3214 52.4752 26.0246 53.191 26.0246 53.9375C26.0246 54.684 26.3214 55.3998 26.8495 55.9273L35.287 64.3648C36.386 65.4638 38.1677 65.4638 39.2667 64.3648C40.3657 63.2659 40.3657 61.4841 39.2667 60.3852L32.8155 53.9375L39.2667 47.4898C39.7948 46.9623 40.0916 46.2465 40.0916 45.5C40.0916 44.7535 39.7948 44.0377 39.2667 43.5102ZM76.6519 31.4375V76.4375C76.6519 79.5441 74.1335 82.0625 71.0269 82.0625H20.4019C17.2953 82.0625 14.7769 79.5441 14.7769 76.4375V14.5625C14.7769 11.4559 17.2953 8.9375 20.4019 8.9375H54.1519C54.898 8.93691 55.6138 9.23284 56.1417 9.76016L75.8292 29.4477C76.3565 29.9756 76.6524 30.6914 76.6519 31.4375ZM56.9644 28.625H67.0507L56.9644 18.5387V28.625ZM71.0269 76.4375V34.25H54.1519C52.5986 34.25 51.3394 32.9908 51.3394 31.4375V14.5625H20.4019V76.4375H71.0269Z" fill="url(#paint0_linear_1109_203)"/>
<defs>
<linearGradient id="paint0_linear_1109_203" x1="45.7144" y1="0.5" x2="45.7144" y2="90.5" gradientUnits="userSpaceOnUse">
<stop stop-color="#F52482"/>
<stop offset="1" stop-color="#ff6600"/>
</linearGradient>
</defs>
</svg>
