<svg width="91" height="91" viewBox="0 0 91 91" fill="none" xmlns="http://www.w3.org/2000/svg">
<path fill-rule="evenodd" clip-rule="evenodd" d="M82.2769 59.5625H79.4644V25.8125C79.4644 21.1526 75.6868 17.375 71.0269 17.375H20.4019C15.742 17.375 11.9644 21.1526 11.9644 25.8125V59.5625H9.15186C7.59855 59.5625 6.33936 60.8217 6.33936 62.375V68C6.33936 72.6599 10.117 76.4375 14.7769 76.4375H76.6519C81.3118 76.4375 85.0894 72.6599 85.0894 68V62.375C85.0894 60.8217 83.8302 59.5625 82.2769 59.5625ZM17.5894 25.8125C17.5894 24.2592 18.8486 23 20.4019 23H71.0269C72.5802 23 73.8394 24.2592 73.8394 25.8125V59.5625H17.5894V25.8125ZM79.4644 68C79.4644 69.5533 78.2052 70.8125 76.6519 70.8125H14.7769C13.2236 70.8125 11.9644 69.5533 11.9644 68V65.1875H79.4644V68ZM54.1519 31.4375C54.1519 32.9908 52.8927 34.25 51.3394 34.25H40.0894C38.5361 34.25 37.2769 32.9908 37.2769 31.4375C37.2769 29.8842 38.5361 28.625 40.0894 28.625H51.3394C52.8927 28.625 54.1519 29.8842 54.1519 31.4375Z" fill="url(#paint0_linear_1109_199)"/>
<defs>
<linearGradient id="paint0_linear_1109_199" x1="45.7144" y1="0.5" x2="45.7144" y2="90.5" gradientUnits="userSpaceOnUse">
<stop stop-color="#F52482"/>
<stop offset="1" stop-color="#ff6600"/>
</linearGradient>
</defs>
</svg>
