<svg width="91" height="91" viewBox="0 0 91 91" fill="none" xmlns="http://www.w3.org/2000/svg">
<path fill-rule="evenodd" clip-rule="evenodd" d="M81.7529 11.75C81.7529 10.1967 80.4937 8.9375 78.9404 8.9375C63.4436 8.9375 47.5424 26.4137 38.7111 37.9871C32.3152 36.0283 25.3693 37.2192 19.9912 41.1968C14.6131 45.1744 11.4404 51.4671 11.4404 58.1562C11.4404 69.0125 4.5709 73.8816 4.24395 74.1066C3.21974 74.7982 2.767 76.0774 3.12812 77.2593C3.48924 78.4412 4.57958 79.2489 5.81543 79.25H32.5342C39.2233 79.25 45.516 76.0773 49.4936 70.6992C53.4712 65.3211 54.6621 58.3752 52.7033 51.9793C64.2803 43.148 81.7529 27.2469 81.7529 11.75ZM32.5342 73.625H12.365C14.7381 70.2535 17.0654 65.1594 17.0654 58.1562C17.0654 49.6131 23.991 42.6875 32.5342 42.6875C41.0773 42.6875 48.0029 49.6131 48.0029 58.1562C48.0029 66.6994 41.0773 73.625 32.5342 73.625ZM43.9318 40.4199C45.1365 38.859 46.3189 37.3883 47.4791 36.0078C50.3188 37.9263 52.7641 40.3717 54.6826 43.2113C53.2998 44.3691 51.8291 45.5516 50.2705 46.7586C48.6316 44.2197 46.4708 42.0589 43.9318 40.4199ZM58.9436 39.4777C56.8202 36.4817 54.2052 33.8667 51.2092 31.7434C62.3818 19.6039 70.8088 15.923 75.7834 14.9C74.7814 19.8781 71.083 28.3051 58.9436 39.4777Z" fill="url(#paint0_linear_1109_201)"/>
<defs>
<linearGradient id="paint0_linear_1109_201" x1="45.1904" y1="0.5" x2="45.1904" y2="90.5" gradientUnits="userSpaceOnUse">
<stop stop-color="#F52482"/>
<stop offset="1" stop-color="#ff6600"/>
</linearGradient>
</defs>
</svg>
